<?xml version="1.0" encoding="utf-8"?>
<!-- Generator: Adobe Illustrator 24.1.2, SVG Export Plug-In . SVG Version: 6.00 Build 0)  -->
<svg version="1.1" id="レイヤー_1" xmlns="http://www.w3.org/2000/svg" xmlns:xlink="http://www.w3.org/1999/xlink" x="0px"
	 y="0px" width="280px" height="30px" viewBox="0 0 280 30" style="enable-background:new 0 0 280 30;" xml:space="preserve">
<style type="text/css">
	.st0{fill:#FFFFFF;}
</style>
<g>
	<path class="st0" d="M20.7,5.9c0,0.6-0.1,0.9-0.3,1.1c-0.1,0.1-0.3,0.2-0.7,0.2C18.9,6.3,18,5.6,17,5c-1.1-0.7-2.5-1-4.2-1
		c-1.3,0-2.3,0.3-2.9,0.8c-0.8,0.7-1.2,2-1.2,3.7c0,0.4,0,0.7,0,0.9c0,0.3,0,0.5,0,0.7c0,0.4,0,0.7,0,1.1c0,0.3,0.1,0.5,0.2,0.5
		c0.6-1,1.4-1.8,2.2-2.5c0.8-0.7,1.8-1.1,3-1.1c1.4,0,2.5,0.5,3.4,1.6c0.6,0.9,1,1.8,1,2.7c0,1.2-0.5,2.3-1.4,3.2
		c-0.9,0.9-1.7,1.3-2.4,1.3c-0.1,0-0.3-0.1-0.5-0.2s-0.3-0.3-0.3-0.4c0-0.1,0.1-0.3,0.2-0.6c0.1-0.3,0.2-0.6,0.2-0.9
		c0-0.5-0.2-0.8-0.6-1.1c-0.4-0.3-0.8-0.4-1.2-0.4c-1.5,0-2.5,0.8-3.1,2.3c-0.4,1-0.5,2.2-0.5,3.8c0,0.4,0,0.7,0,0.8v3.8
		c0,1.3,0.3,2.2,0.8,2.8c0.5,0.6,0.8,1,0.8,1.3c0,0.2-0.1,0.4-0.4,0.6c-0.3,0.2-0.5,0.3-0.7,0.3H1.6c-0.4,0-0.8-0.1-1.1-0.2
		C0.2,28.3,0,28.1,0,27.9c0-0.3,0.3-0.8,0.8-1.4c0.5-0.7,0.8-1.6,0.8-2.6V7.9c0-2-0.3-3.3-0.8-3.9C0.3,3.4,0,2.9,0,2.6
		c0-0.6,0.6-0.9,1.9-0.9h9.9c1.8,0,3.2,0,4.2-0.1c1-0.1,1.9-0.2,2.8-0.3c0.6,0,1.1,0.6,1.5,1.7C20.5,3.8,20.7,4.7,20.7,5.9z"/>
	<path class="st0" d="M44.7,24.7c0,1-0.3,1.8-0.9,2.6c-0.7,1-1.8,1.4-3.2,1.4H24.6c-0.3,0-0.5-0.1-0.9-0.2c-0.3-0.1-0.5-0.3-0.5-0.6
		c0-0.2,0.2-0.7,0.7-1.5c0.4-0.8,0.7-2,0.7-3.5c0-1,0-3.4-0.1-7.1c-0.1-3.7-0.1-6.1-0.1-7.2c0-1.8-0.2-3.1-0.5-3.9
		C23.4,4,23,3.3,22.7,2.5c0-0.3,0.2-0.6,0.5-0.7c0.3-0.1,0.7-0.2,1.2-0.2h7.4c0.4,0,0.7,0,0.7,0c0.4,0.1,0.6,0.4,0.6,0.9
		c0,0.2-0.3,0.6-0.8,1.3c-0.5,0.7-0.8,1.5-0.8,2.5V17c0,0.3,0,0.6,0,1c0,0.3,0,0.7,0,1.1c0,2.2,0.2,3.9,0.5,5c0.5,1.8,1.5,2.6,3,2.6
		c0.9,0,1.5-0.3,2.1-0.9c0.5-0.6,0.8-1.2,0.8-1.9c0-0.7-0.3-1.3-0.9-1.9c-0.7-0.5-1.3-1.1-2-1.7c0-0.5,0.4-0.9,1.1-1.2
		c0.8-0.4,1.5-0.5,2.2-0.5c1.4,0,2.7,0.6,4.1,1.7C44,21.5,44.7,23,44.7,24.7z"/>
	<path class="st0" d="M72.5,12.5c0,4.1-1,7.7-3.1,10.8c-2.4,3.6-5.7,5.4-9.8,5.4c-4.3,0-7.6-1.8-10.1-5.5c-2-2.9-3-6.2-3-9.8
		c0-4.8,1.2-8,3.6-9.8c1.9-1.3,5-2,9.4-2c4.5,0,7.7,0.6,9.5,1.9C71.4,5.1,72.5,8.1,72.5,12.5z M64.4,13.8c0-2.6-0.2-4.6-0.5-5.8
		c-0.7-2.7-2.1-4.1-4.3-4.1c-1.7,0-2.9,0.9-3.8,2.6c-0.9,1.7-1.3,4.1-1.3,7.1c0,3,0.2,5.4,0.7,7.4c0.8,3.5,2.3,5.3,4.3,5.3
		c1.8,0,3.1-1.8,4-5.3C64.1,18.6,64.4,16.2,64.4,13.8z"/>
	<path class="st0" d="M105.9,4.3c0,1-0.2,2.4-0.5,4.3c-0.2,1-0.4,2.1-0.6,3.1c-0.6,2.5-1.3,5.2-2.3,8.1c-0.7,2.1-1.7,4.8-2.9,7.9
		c-0.3,0.4-0.6,0.7-1.1,0.9c-0.5,0.1-1,0.2-1.7,0.2c-0.6-0.1-1-0.1-1.2-0.1c-0.3,0-0.5,0-0.6,0c-0.2,0-0.3,0-0.4,0
		c-0.3,0-0.5,0-0.6,0c-0.2,0-0.4-0.1-0.5-0.2c-0.1-0.1-0.3-0.3-0.3-0.5c-0.1-0.2-0.2-0.3-0.2-0.4c-0.7-2.2-1.5-4.5-2.2-6.8
		c-0.1-0.2-0.2-0.3-0.4-0.2c-1.1,2.5-2.2,5-3.3,7.5c-0.3,0.3-0.6,0.4-1,0.6c-0.4,0.1-0.9,0.2-1.3,0.2c-0.4,0-0.7,0-1.1,0
		c-0.4,0-0.8-0.1-1.1-0.1c-0.8,0-1.4-0.5-1.8-1.5c-0.2-0.4-0.4-0.9-0.5-1.4c-0.6-2-1.3-4.3-2-6.9c-0.8-2.6-1.4-5-1.9-7.1
		c-0.7-2.7-1.2-5.1-1.5-7.1c-0.1-0.4-0.2-0.8-0.2-1.2c0-0.4,0.1-0.7,0.2-1c0.3-0.4,0.6-0.7,1-0.8c0.4-0.1,0.8-0.2,1.1-0.2h2.4
		c0.7,0,1.3,0,1.9,0c0.6,0,1.3,0,2,0.1c0.2,0.1,0.3,0.2,0.5,0.4c0.2,0.2,0.3,0.4,0.3,0.6c0,0.3-0.4,1-1.1,2
		c-0.4,0.5-0.5,0.9-0.5,1.3c0.2,2.5,0.8,5.4,1.6,8.6c0.8,2.8,1.5,5.5,2.3,8.3c0.2,0.1,0.3,0.2,0.5,0.3c0.4-0.7,0.7-1.6,1.1-2.7
		c0.1-0.3,0.5-1.8,1.3-4.7c0-0.8-0.1-1.6-0.3-2.5c-0.2-0.9-0.4-1.8-0.6-2.6c-0.2-0.8-0.3-1.6-0.5-2.4c-0.4-1.9-0.7-3.4-0.7-4.4
		c0-0.6,0.1-1.1,0.2-1.6c0.2-0.4,0.5-0.6,1-0.6c0.5,0,0.8-0.1,1.2-0.1c0.4,0,0.9,0,1.6,0c0.7,0,1.2,0,1.6,0c0.8,0,1.3,0,1.7,0.1
		c0.3,0,0.8,0.1,1.4,0.3c0.2,0.1,0.4,0.3,0.6,0.6c0.1,0.3,0.2,0.6,0.1,0.8c-0.5,0.3-0.8,0.7-1,1.2c-0.2,0.5-0.3,1-0.3,1.7
		c0,0.5,0.1,1.3,0.3,2.3c0.2,1,0.3,1.5,0.3,1.5c0.4,2.2,0.8,4.3,1.4,6.3c0.4,1.7,1,3.8,1.7,6.2c0.1,0.1,0.1,0.1,0.2,0.2
		c0.1,0.2,0.3,0.2,0.4,0.1c0.4-1,0.7-2.2,1.2-3.6c0.6-2.1,0.9-3.4,1-3.7c0.3-2,0.5-3.3,0.6-3.9c0.1-0.7,0.1-1.5,0.1-2.5
		c0-0.9-0.1-1.7-0.2-2.4c-0.1-0.7-0.3-1.4-0.7-2.1c-0.1-0.1-0.4-0.4-1-0.9c-0.5-0.4-0.7-0.8-0.7-1.3c0-0.1,0-0.2,0.1-0.4
		c0.1-0.2,0.4-0.3,0.9-0.4c0.6-0.1,1.3-0.1,2.3-0.1c0.4,0,0.7,0,1.1,0c0.4,0,0.7,0,1,0c0.2,0.1,0.4,0.1,0.5,0.1
		C105.6,1.9,105.9,2.8,105.9,4.3z"/>
	<path class="st0" d="M129,21.6c0,0.9-0.2,1.9-0.6,3.1c-0.4,1.2-0.9,2.3-1.5,3.2c-0.3,0.2-0.5,0.4-0.8,0.5c-0.2,0.1-0.5,0.2-0.8,0.2
		h-16.2c-0.4,0-0.8-0.1-1.1-0.3c-0.3-0.2-0.5-0.5-0.5-0.8c0-0.2,0.3-0.7,0.9-1.5c0.6-0.8,0.9-1.9,0.9-3.3V7.4c0-1.1-0.2-2-0.6-2.6
		c-0.4-0.6-0.8-1.2-1.2-1.8c0-0.4,0.1-0.7,0.4-0.8c0.3-0.1,0.6-0.2,1-0.2c0.2,0,0.4,0,0.4,0h11.8c1.5,0,2.7,0,3.4-0.1
		c0.7-0.1,1.4-0.1,2.2-0.3c0.5,0,0.9,0.6,1.2,1.9c0.2,0.8,0.3,1.6,0.3,2.4c0,0.6-0.1,1-0.2,1.2c-0.1,0.2-0.3,0.3-0.7,0.3
		c-0.1,0-0.8-0.5-2.1-1.6c-1.3-1.1-2.8-1.6-4.7-1.6c-1.5,0-2.6,0.4-3.3,1.3c-0.5,0.6-0.7,1.3-0.7,2.1c0,0.3,0,0.7,0,1.3
		c0,0.6,0,1,0,1.2c0,0.4,0,0.7,0,0.8c0.1,0.2,0.1,0.3,0.3,0.3c0.4-0.8,1-1.5,1.8-2.2c1-0.7,2.1-1.1,3.5-1.1c1.2,0,2.1,0.6,2.8,1.7
		c0.6,0.9,0.9,1.7,0.9,2.4c0,1.7-0.7,2.9-2,3.7c-1,0.6-1.9,0.8-2.5,0.7c-0.1-0.1-0.2-0.2-0.2-0.3c0-0.1,0.1-0.3,0.2-0.6
		c0.1-0.3,0.2-0.6,0.2-0.7c0-0.5-0.3-0.9-0.8-1.4c-0.4-0.3-0.7-0.5-0.9-0.5c-1.4,0-2.4,0.8-3,2.5c-0.4,1.2-0.6,2.8-0.6,4.8
		c0,0.5,0,0.9,0,1.3c0,0.4,0,0.8,0,1.1c0,1,0.2,1.8,0.5,2.3c0.5,0.7,1.3,1.1,2.4,1.1c1.8,0,3.4-0.6,4.9-1.8c1.3-1.3,2.6-2.6,3.9-3.9
		c0.3,0,0.5,0.1,0.6,0.4C128.9,21.1,129,21.3,129,21.6z"/>
	<path class="st0" d="M157.4,27.8c0,0.1-0.1,0.2-0.2,0.3c-0.1,0.1-0.3,0.2-0.4,0.2c-3,0-6.3-1.7-10-5.2c-3.7-3.5-5.6-6.5-5.6-8.9
		c0-0.8,0.2-1.4,0.6-1.6c0.2-0.1,0.5-0.2,0.8-0.2c0.3,0,0.7,0.1,1.2,0.2c0.5,0.2,0.8,0.2,0.8,0.2c0.9,0,1.5-0.4,2-1.1
		c0.5-0.7,0.7-1.6,0.7-2.5c0-1.3-0.3-2.4-0.9-3.3c-0.7-1.1-1.7-1.7-2.9-1.7c-1.6,0-2.7,0.8-3.2,2.4c-0.3,0.9-0.5,2.4-0.5,4.3
		c0,1.4,0.1,4,0.4,7.7c0.1,1.9,0.2,3.5,0.2,4.9c0,1.3,0.3,2.2,0.9,2.9c0.6,0.6,0.9,1.1,0.9,1.5c0,0.3-0.1,0.5-0.3,0.6
		c-0.2,0.1-0.7,0.2-1.3,0.2c-0.2,0-0.4,0-0.5,0h-4.3c-1,0-1.7-0.2-2.1-0.7c-0.3-0.3-0.4-0.9-0.4-1.7c0-0.4,0-0.7,0-0.9
		c0-2.3-0.1-5.4-0.3-9.1c-0.2-3.8-0.3-6.3-0.3-7.7c0-1.5-0.2-2.7-0.5-3.4c-0.4-0.6-0.7-1.2-1.1-1.8c0-0.2,0.1-0.4,0.4-0.6
		c0.3-0.2,0.5-0.3,0.7-0.3c1.9,0,4.4-0.1,7.3-0.3c3-0.2,6-0.3,9-0.5c2.9,0,4.9,0.7,6.1,2c0.7,0.8,1,1.9,1,3.2c0,1.6-0.7,3.1-2,4.3
		c-1.3,1.3-2.7,2.6-4.1,3.9c0,1.2,0.9,3.1,2.6,5.5C153.8,23,155.6,25.4,157.4,27.8z"/>
	<path class="st0" d="M200.3,22.9c-0.2,1.1-0.7,2.1-1.4,3c-0.7,0.9-1.6,1.5-2.6,1.9c-2,0.6-4.1,0.9-6.4,0.9c-2.9,0-5.4-0.5-7.7-1.5
		c-0.7-0.5-1.3-1-1.7-1.7c-0.4-0.7-0.7-1.4-0.7-2.2c0-0.2,0-0.4,0-0.7c0-0.8,0.3-1.5,0.9-2.2c0.6-0.7,1.3-1.2,2-1.6
		c0.5-0.2,0.9-0.3,1.4-0.3c0.4-0.1,0.9-0.1,1.4-0.1c0.6,0,1.1,0.1,1.6,0.3c0.5,0.2,0.9,0.4,1.2,0.8c0,0.4-0.3,0.7-0.9,0.9
		c-0.6,0.3-1,0.5-1.1,0.7c-0.2,0.2-0.4,0.6-0.5,1.2c-0.1,0.6-0.2,0.9-0.2,0.9c0,1.3,0.7,2.2,2,2.7c0.3,0.1,0.6,0.2,0.9,0.2
		c0.4,0.1,0.6,0.1,0.9,0.1c0.3,0,0.6,0,0.9-0.1c0.3-0.1,0.6-0.3,0.9-0.5c0.6-0.4,1-0.9,1.3-1.5c0.3-0.6,0.4-1.3,0.4-2
		c0-0.3,0-0.5,0-0.7c-0.4-1.6-1.4-3-3.2-4.2c-1.5-1-3-2-4.6-3c-1.4-0.8-2.5-1.7-3.3-2.7c-1.1-1.2-1.7-2.5-1.9-3.8c0-0.1,0-0.3,0-0.6
		c0-1.7,0.7-3.1,2.2-4.1c0.7-0.5,1.6-0.9,2.5-1.1s2-0.3,3.1-0.3c0.6,0,1.7,0,3,0.1c1.4,0.1,2.3,0.1,2.8,0.1c0.8,0,1.4,0,1.7-0.1
		c0.3,0,0.7-0.1,1.1-0.2c0.5-0.1,0.7-0.1,0.9-0.1c0.3,0,0.5,0.1,0.7,0.2c0.2,0.1,0.3,0.4,0.4,0.9c0.1,0.5,0.2,0.8,0.3,1.1
		c0.2,1,0.3,1.7,0.3,2.2c0,0.2,0,0.3,0,0.4c-0.1,0.4-0.2,0.7-0.6,0.9c-0.5,0.1-1-0.1-1.5-0.7c-0.6-0.8-1-1.3-1.3-1.4
		c-0.5-0.4-1.1-0.8-1.7-1c-0.6-0.2-1.3-0.3-2.1-0.3c-0.9,0-1.7,0.2-2.5,0.6c-0.4,0.3-0.7,0.6-0.8,0.9c-0.1,0.2-0.2,0.5-0.2,0.8
		c0.1,0.9,0.5,1.7,1.3,2.3c2.3,1.8,4.7,3.5,7.1,5.3c2.6,2.4,3.9,4.9,3.9,7.5c0,0.4,0,0.6,0,0.8C200.5,22.1,200.4,22.4,200.3,22.9z"
		/>
	<path class="st0" d="M227.1,28c0,0.3-0.2,0.5-0.5,0.6c-0.4,0.1-0.6,0.1-0.8,0.1h-7.2c-0.5,0-0.8,0-1.1-0.1
		c-0.2-0.1-0.3-0.3-0.3-0.5c0-0.4,0.2-0.9,0.7-1.5c0.5-0.6,0.7-1.5,0.7-2.6V11.7c0-0.3-0.2-0.4-0.7-0.4c-1.2,0-2.6,0.6-4.1,1.7
		c-1.8,1.3-2.7,2.9-2.7,4.7v5.3c0,1.3,0.1,2.3,0.4,3.1c0.3,0.6,0.6,1.3,0.9,1.9c0,0.2-0.1,0.4-0.3,0.6c-0.2,0.1-0.5,0.2-0.7,0.2
		h-6.8c-0.6,0-1.1-0.1-1.5-0.2c-0.3-0.1-0.5-0.4-0.5-0.7c0.5-0.5,0.9-1.3,1.2-2.4s0.5-3,0.5-5.4v-7.7c0-3.5-0.2-5.9-0.5-7.3
		c-0.4-0.8-0.8-1.6-1.2-2.4c0-0.3,0.1-0.5,0.3-0.7c0.2-0.2,0.5-0.2,0.7-0.2h7.8c0.3,0,0.6,0.1,0.7,0.2c0.2,0.1,0.2,0.4,0.2,0.8
		c0,0.4-0.2,0.8-0.6,1.3c-0.4,0.5-0.6,1.1-0.6,1.9v3.3c0,0.4,0.2,0.7,0.5,0.7c0.2,0,0.6-0.1,1.2-0.3c0.8-0.3,1.3-0.4,1.7-0.5
		c1.5-0.2,2.4-0.4,3-0.5c0.5-0.2,0.8-0.4,0.8-0.8V5.9c0-0.6-0.2-1.3-0.7-2c-0.5-0.7-0.7-1.2-0.7-1.3c0-0.6,0.5-1,1.5-1h6.5
		c1.3,0,2,0.3,2,1c0,0.2-0.1,0.4-0.4,0.7c-0.6,0.7-1,2.3-1,4.7v13.8c0,2,0.1,3.4,0.4,4.2C226.4,26.7,226.7,27.4,227.1,28z"/>
	<path class="st0" d="M254.8,12.5c0,4.1-1,7.7-3.1,10.8c-2.4,3.6-5.7,5.4-9.8,5.4c-4.3,0-7.6-1.8-10.1-5.5c-2-2.9-3-6.2-3-9.8
		c0-4.8,1.2-8,3.6-9.8c1.9-1.3,5-2,9.4-2c4.5,0,7.7,0.6,9.5,1.9C253.6,5.1,254.8,8.1,254.8,12.5z M246.7,13.8c0-2.6-0.2-4.6-0.5-5.8
		c-0.7-2.7-2.1-4.1-4.3-4.1c-1.7,0-2.9,0.9-3.8,2.6c-0.9,1.7-1.3,4.1-1.3,7.1c0,3,0.2,5.4,0.7,7.4c0.8,3.5,2.3,5.3,4.3,5.3
		c1.8,0,3.1-1.8,4-5.3C246.4,18.6,246.7,16.2,246.7,13.8z"/>
	<path class="st0" d="M280,7.4c0,2.3-1,4.3-3.1,5.9c-2,1.5-4.2,2.3-6.8,2.3c-0.7,0-1.6-0.1-2.6-0.4c-1-0.3-1.4-0.6-1.4-0.9
		c0-0.2,0.1-0.3,0.2-0.5c0.2-0.1,0.5-0.2,0.9-0.2c0.4,0,0.7,0,0.9,0c1.1,0,2-0.4,2.7-1.3c0.6-0.7,0.9-1.7,0.9-2.9
		c0-1.2-0.2-2.2-0.5-3.1c-0.5-1.4-1.4-2.1-2.6-2.1c-1.5,0-2.5,0.7-3.1,2c-0.4,1-0.6,2.5-0.6,4.6v7.5c0,3.3,0.2,5.6,0.6,7
		c0.4,0.9,0.9,1.8,1.4,2.6c0,0.2-0.1,0.4-0.3,0.5c-0.2,0.2-0.4,0.2-0.6,0.2h-6.1c-0.7,0-1.2-0.3-1.5-0.8c-0.2-0.5-0.4-1.4-0.4-2.6
		V8.1c0-1.5-0.2-2.6-0.5-3.3c-0.4-0.7-0.8-1.4-1.2-2.1c0-0.3,0.1-0.5,0.4-0.6c0.3-0.1,0.6-0.2,0.9-0.2c4.3,0,7.4,0,9.4-0.1
		c2-0.1,3.9-0.1,5.8-0.2c2,0,3.5,0.3,4.7,0.9C279.2,3.5,280,5.1,280,7.4z"/>
</g>
</svg>
